<svg xmlns="http://www.w3.org/2000/svg" xmlns:xlink="http://www.w3.org/1999/xlink" version="1.1" id="Layer_1" x="0px" y="0px" width="100px" height="100px" viewBox="0 0 100 100" enable-background="new 0 0 100 100" xml:space="preserve">
<g id="Captions">
	<rect x="-192" width="185" height="99"/>
	<rect y="-36" width="100" height="30"/>
	<text transform="matrix(1 0 0 1 66 -19.5)" fill="#000000" font-family="'Helvetica'" font-size="2.4">http://thenounproject.com</text>
	<text transform="matrix(1 0 0 1 7.166 -24.5)" fill="#000000" font-family="'Helvetica-Bold'" font-size="6.1578">The Noun Project</text>
	<text transform="matrix(1 0 0 1 8.2861 -19.7002)" fill="#000000" font-family="'Helvetica-Bold'" font-size="4">Icon Template</text>
	<text transform="matrix(1 0 0 1 -178.5 10.5)" fill="#000000" font-family="'Helvetica-Bold'" font-size="6.1578">Reminders</text>
	<line fill="#000000" stroke="#FFFFFF" stroke-miterlimit="10" x1="8" y1="-14.5" x2="18" y2="-14.5"/>
	<line fill="#000000" stroke="#FFFFFF" stroke-miterlimit="10" x1="-179" y1="16.5" x2="-162" y2="16.5"/>
	<g>
		<g>
			<g>
				<rect x="-170.802" y="31.318" fill="#000000" width="8.721" height="8.642"/>
				<path fill="#000000" d="M-164.455,42.312h4.747v-4.703h-4.747V42.312z M-159.266,42.749h-5.63V37.17h5.63V42.749      L-159.266,42.749z M-166.221,44.062h8.279v-8.203h-8.279V44.062L-166.221,44.062z M-157.5,44.5h-9.163v-9.079h9.163V44.5      L-157.5,44.5z"/>
				<polygon fill="#000000" points="-166.149,44.133 -166.292,43.991 -158.013,35.787 -157.871,35.929     "/>
			</g>
		</g>
	</g>
	<rect x="-179" y="58" fill="none" width="35" height="32.5"/>
	<text transform="matrix(1 0 0 1 -179 60.1572)" fill="#000000" font-family="'Helvetica-Bold'" font-size="3">Strokes</text>
	<text transform="matrix(1 0 0 1 -179 65.1572)" fill="#000000" font-family="'Helvetica'" font-size="2.4">Try to keep strokes at 4px</text>
	<text transform="matrix(1 0 0 1 -179 70.1572)" fill="#000000" font-family="'Helvetica'" font-size="2.4">Minimum stroke weight is 2px</text>
	<text transform="matrix(1 0 0 1 -179 74.6572)" fill="#000000" font-family="'Helvetica'" font-size="2.4">For thicker strokes use even </text>
	<text transform="matrix(1 0 0 1 -179 77.6572)" fill="#000000" font-family="'Helvetica'" font-size="2.4">numbers: 6px, 8px etc.</text>
	<text transform="matrix(1 0 0 1 -179 82.1572)" fill="#000000" font-family="'Helvetica-Bold'" font-size="2.4">Remember to expand strokes </text>
	<text transform="matrix(1 0 0 1 -179 85.1572)" fill="#000000" font-family="'Helvetica-Bold'" font-size="2.4">before saving as an SVG </text>
	<rect x="-136.5" y="58" fill="none" width="35" height="32.5"/>
	<text transform="matrix(1 0 0 1 -136.5 60.1572)" fill="#000000" font-family="'Helvetica-Bold'" font-size="3">Size</text>
	<text transform="matrix(1 0 0 1 -136.5 65.1572)" fill="#000000" font-family="'Helvetica'" font-size="2.4">Cannot be wider or taller than </text>
	<text transform="matrix(1 0 0 1 -136.5 68.6572)" fill="#000000" font-family="'Helvetica'" font-size="2.4">100px (artboard size)</text>
	<text transform="matrix(1 0 0 1 -136.5 73.6572)" fill="#000000" font-family="'Helvetica'" font-size="2.4">Scale your icon to fill as much of </text>
	<text transform="matrix(1 0 0 1 -136.5 76.6572)" fill="#000000" font-family="'Helvetica'" font-size="2.4">the artboard as possible</text>
	<rect x="-94" y="58" fill="none" width="35" height="32.5"/>
	<text transform="matrix(1 0 0 1 -94 60.1572)" fill="#000000" font-family="'Helvetica-Bold'" font-size="3">Ungroup</text>
	<text transform="matrix(1 0 0 1 -94 65.1572)" fill="#000000" font-family="'Helvetica'" font-size="2.4">If your design has more than one </text>
	<text transform="matrix(1 0 0 1 -94 68.1572)" fill="#000000" font-family="'Helvetica'" font-size="2.4">shape, make sure to ungroup</text>
	<rect x="-50" y="58" fill="none" width="35" height="32.5"/>
	<text transform="matrix(1 0 0 1 -50 60.1572)" fill="#000000" font-family="'Helvetica-Bold'" font-size="3">Save as</text>
	<text transform="matrix(1 0 0 1 -50 65.1572)" fill="#000000" font-family="'Helvetica'" font-size="2.4">Save as .SVG and make sure </text>
	<text transform="matrix(1 0 0 1 -50 68.1572)" fill="#000000" font-family="'Helvetica'" font-size="2.4">&#8220;Use Artboards&#8221; is checked</text>
	<text transform="matrix(1.0074 0 0 1 -125.542 30.5938)" fill="#000000" font-family="'Helvetica'" font-size="2.5731">100px</text>
	<text transform="matrix(1.0074 0 0 1 -41 39)" fill="#000000" font-family="'Helvetica-Bold'" font-size="5.1462">.SVG</text>
	<rect x="-126.514" y="34.815" fill="#000000" width="10.261" height="10.185"/>
	<rect x="-126.477" y="31.766" fill="#000000" width="0.522" height="2.337"/>
	<rect x="-116.812" y="31.766" fill="#000000" width="0.523" height="2.337"/>
	<rect x="-127" y="32.337" fill="#000000" width="11.233" height="0.572"/>
	<g>
		<rect x="-83.805" y="33.844" fill="#000000" width="10.305" height="10.156"/>
		<rect x="-76.809" y="28.707" fill="#000000" width="3.308" height="3.261"/>
	</g>
	<rect x="-178.5" y="22.5" fill="#000000" stroke="#FFFFFF" stroke-miterlimit="10" width="30" height="30"/>
	<rect x="-136.5" y="22.5" fill="#000000" stroke="#FFFFFF" stroke-miterlimit="10" width="30" height="30"/>
	<rect x="-93.5" y="22.5" fill="#000000" stroke="#FFFFFF" stroke-miterlimit="10" width="30" height="30"/>
	<rect x="-49.5" y="22.5" fill="#000000" stroke="#FFFFFF" stroke-miterlimit="10" width="30" height="30"/>
</g>
<path d="M26.443,35.545"/>
<path d="M64.109,74.773H28.527c-4.622,0-6.422-1.802-6.422-6.422l-2.08-28.477c-0.006-4.781,1.794-6.58,6.417-6.58h2.651  l2.405-6.589c0.324-0.888,1.169-1.479,2.114-1.479H50.77c0.955,0,1.807,0.604,2.123,1.503l2.305,6.565h16.984  c3.934,0,6.68,2.552,7.338,6.829l0.455,17.174c0.031,1.242-0.949,2.273-2.191,2.306c-1.281-0.021-2.277-0.952-2.307-2.194  l-0.43-16.887c-0.387-2.385-1.734-2.728-2.865-2.728H53.604c-0.953,0-1.805-0.604-2.121-1.503l-2.307-6.565H35.187l-2.405,6.589  c-0.324,0.888-1.169,1.479-2.114,1.479h-4.225c-1.409,0-1.758,0.161-1.812,0.193c0.056-0.012-0.11,0.311-0.111,1.723l2.08,28.477  c0.006,1.57,0.167,1.916,0.199,1.972c-0.026-0.05,0.325,0.114,1.729,0.114h35.582c1.242,0,2.25,1.008,2.25,2.25  S65.352,74.773,64.109,74.773z"/>
<path d="M58.775,66.57c-6.802,0-12.337-5.534-12.337-12.34s5.536-12.34,12.337-12.34c6.805,0,12.34,5.534,12.34,12.34  S65.58,66.57,58.775,66.57z M58.775,46.391c-4.322,0-7.838,3.516-7.838,7.84s3.516,7.84,7.838,7.84c4.324,0,7.84-3.516,7.84-7.84  S63.1,46.391,58.775,46.391z"/>
<path d="M75.65,72.553c-0.574,0-1.152-0.22-1.592-0.659l-9.346-9.346c-0.879-0.879-0.879-2.303,0-3.182s2.303-0.879,3.182,0  l9.346,9.346c0.879,0.879,0.879,2.303,0,3.182C76.801,72.333,76.227,72.553,75.65,72.553z"/>
<path d="M40.79,37.895H30.665c-1.242,0-2.25-1.008-2.25-2.25s1.008-2.25,2.25-2.25H40.79c1.242,0,2.25,1.008,2.25,2.25  S42.032,37.895,40.79,37.895z"/>
</svg>