<svg xmlns="http://www.w3.org/2000/svg" xmlns:xlink="http://www.w3.org/1999/xlink" version="1.0" x="0px" y="0px" width="100px" height="100px" viewBox="0 0 100 100" enable-background="new 0 0 100 100" xml:space="preserve">
<g id="Captions">
</g>
<g id="Your_Icon">
	<g>
		<path fill="#000000" d="M93.581,77.853l-36.898-3.945c4.815-3.875,10.757-5.978,17.017-5.97c7.25,0.009,14.067,2.844,19.195,7.985    c0.236,0.236,0.546,0.355,0.855,0.355c0.31,0,0.619-0.117,0.856-0.353c0.473-0.472,0.474-1.238,0.002-1.711    c-5.584-5.598-13.009-8.686-20.905-8.695c-7.896-0.01-15.328,3.061-20.926,8.645c-0.002,0.002-0.004,0.005-0.006,0.007    c-0.053,0.054-0.102,0.113-0.145,0.177c-0.021,0.031-0.035,0.065-0.053,0.098c-0.02,0.037-0.042,0.072-0.058,0.111    c-0.017,0.041-0.027,0.084-0.039,0.126c-0.01,0.033-0.023,0.065-0.03,0.099c-0.016,0.078-0.024,0.158-0.024,0.237l-0.002,1.638    c-0.69,0.542-1.533,0.838-2.422,0.837c-0.889-0.001-1.732-0.299-2.42-0.843l0.002-1.638c0-0.08-0.008-0.159-0.024-0.238    c-0.007-0.035-0.02-0.067-0.03-0.1c-0.012-0.042-0.022-0.085-0.039-0.126c-0.016-0.039-0.038-0.074-0.058-0.111    c-0.018-0.033-0.032-0.066-0.053-0.097c-0.042-0.064-0.091-0.123-0.144-0.177c-0.002-0.002-0.004-0.005-0.006-0.007    c-5.584-5.598-13.009-8.686-20.905-8.695c-7.896-0.01-15.328,3.061-20.926,8.645c-0.473,0.472-0.474,1.238-0.002,1.711    c0.472,0.473,1.238,0.474,1.711,0.002c5.14-5.128,11.964-7.947,19.214-7.938c6.261,0.008,12.197,2.125,17.003,6.012L6.413,77.747    c-0.678,0.071-1.171,0.678-1.1,1.356c0.066,0.634,0.602,1.106,1.225,1.107c0.043,0,38.619-4.027,38.619-4.027l-0.001,1.008    c0,0.08,0.008,0.159,0.024,0.237c0.007,0.035,0.02,0.067,0.03,0.101c0.012,0.042,0.022,0.084,0.039,0.125    c0.017,0.04,0.039,0.076,0.06,0.114c0.017,0.031,0.031,0.064,0.051,0.094c0.044,0.067,0.095,0.129,0.151,0.185    c1.198,1.2,2.79,1.862,4.484,1.864c1.694,0.002,3.289-0.657,4.489-1.854c0.002-0.002,0.004-0.005,0.006-0.007    c0.053-0.054,0.102-0.113,0.145-0.177c0.021-0.031,0.035-0.065,0.053-0.098c0.02-0.037,0.042-0.072,0.058-0.11    c0.017-0.041,0.027-0.084,0.04-0.127c0.01-0.033,0.023-0.065,0.029-0.099c0.016-0.078,0.024-0.158,0.024-0.238l0.001-1.008    c0,0,38.566,4.121,38.61,4.121c0.624,0.001,1.16-0.47,1.228-1.104C94.75,78.534,94.259,77.925,93.581,77.853z"/>
	</g>
	<g>
		<path fill="#000000" d="M45.255,56.172l-7.783,4.476c-0.265,0.152-0.557,0.226-0.847,0.226c-0.44,0-0.875-0.17-1.202-0.498    c-0.543-0.543-0.654-1.383-0.271-2.049l4.476-7.783c0.1-0.405,0.303-0.765,0.598-1.061l5.4-5.4    c-0.643-0.209-1.306-0.364-1.988-0.452c-0.475-0.061-0.958-0.093-1.433-0.093c-2.458,0-4.793,0.8-6.755,2.315    C35.378,45.908,9.325,66.84,9.325,66.84c-0.458,0.367-0.531,1.035-0.164,1.493c0.21,0.262,0.518,0.398,0.829,0.398    c0.233,0,0.468-0.076,0.664-0.234l0.614-0.493c5.723-4.237,12.73-6.074,19.805-5.163c7.191,0.925,13.6,4.577,18.075,10.284V52.742    l-2.831,2.831C46.021,55.869,45.66,56.072,45.255,56.172z"/>
		<path fill="#000000" d="M74.854,20.946c-0.509-0.509-1.176-0.764-1.844-0.764s-1.334,0.255-1.843,0.764l-0.412,0.412l-1.674-1.674    L60.3,28.465c-0.268,0.268-0.268,0.702,0,0.97c0.134,0.134,0.31,0.201,0.485,0.201c0.176,0,0.351-0.067,0.485-0.201l7.811-7.811    l0.703,0.704L47.321,44.791h0l-5.893,5.893c-0.115,0.115-0.168,0.266-0.173,0.439l-4.63,8.051l8.051-4.63    c0.173-0.005,0.324-0.058,0.439-0.173l29.739-29.739C75.872,23.614,75.872,21.964,74.854,20.946z"/>
		<path fill="#000000" d="M90.917,66.84c0,0-25.996-20.892-26.072-20.951c-1.898-1.473-4.15-2.267-6.524-2.32l-7.474,7.474v22.156    c4.492-5.739,10.934-9.401,18.159-10.313c7.264-0.917,14.455,1.053,20.249,5.548c0.165,0.128,0.36,0.19,0.554,0.194    c0.142,0.066,0.292,0.101,0.443,0.101c0.311,0,0.62-0.136,0.829-0.398C91.449,67.875,91.375,67.206,90.917,66.84z"/>
	</g>
</g>
</svg>