<svg xmlns="http://www.w3.org/2000/svg" xmlns:xlink="http://www.w3.org/1999/xlink" version="1.1" x="0px" y="0px" width="100px" height="100px" viewBox="0 0 100 100" enable-background="new 0 0 100 100" xml:space="preserve">
<g id="Captions">
</g>
<g id="Your_Icon">
	<path d="M42.703,71.745h13.861v13.598H42.703V71.745z"/>
	<path d="M58.865,69.938h8.005v7.851h-8.005V69.938z"/>
	<path d="M65.216,62.528h5.657v5.549h-5.657V62.528z"/>
	<path d="M24.87,39.889c0.307-14.608,9.807-25.231,24.823-25.231c19.205,0,25.437,11.952,25.437,19.716   c0,19.512-16.854,16.854-18.592,29.215v3.883H42.747v-4.598c1.431-17.672,16.651-16.037,16.345-27.07   c0-6.231-3.27-9.193-8.683-9.193c-7.355,0-10.522,6.026-10.522,13.279H24.87z"/>
</g>
</svg>