<svg xmlns="http://www.w3.org/2000/svg" xmlns:xlink="http://www.w3.org/1999/xlink" version="1.1" id="Layer_1" x="0px" y="0px" width="100px" height="100px" viewBox="0 0 100 100" enable-background="new 0 0 100 100" xml:space="preserve">
<g>
	<path d="M47.148,82.021c0,9.036-7.325,16.363-16.362,16.363c-9.036,0-16.36-7.327-16.36-16.363c0-9.035,7.325-16.362,16.36-16.362   C39.823,65.659,47.148,72.986,47.148,82.021z M30.785,89.934c4.364,0,7.912-3.547,7.912-7.912c0-4.361-3.548-7.908-7.912-7.908   c-4.361,0-7.907,3.547-7.907,7.908C22.878,86.387,26.424,89.934,30.785,89.934L30.785,89.934z"/>
	<path d="M71.854,65.264c-9.038,0-16.361,7.326-16.361,16.363c0,9.035,7.323,16.361,16.361,16.361c9.036,0,16.36-7.326,16.36-16.361   C88.214,72.59,80.89,65.264,71.854,65.264z M71.852,89.537c-4.36,0-7.907-3.546-7.907-7.91c0-4.362,3.547-7.91,7.907-7.91   c4.362,0,7.911,3.548,7.911,7.91C79.763,85.991,76.214,89.537,71.852,89.537z"/>
	<path d="M74.437,3.577l-0.941-0.631l-0.564,0.986L50.974,42.275L29.35,3.587l-0.486-0.869L27.969,3.15   c-10.444,5.036-8.533,18.236-8.511,18.367l0.03,0.204l0.104,0.177l23.288,39.044c0.824,11.054,7.391,13.914,7.674,14.029   l0.371,0.156l0.386-0.134c7.58-2.651,8.74-12.562,8.886-14.316l22.137-38.266l0.06-0.099l0.036-0.119   C85.791,11.363,74.555,3.656,74.437,3.577z M51.127,68.225c-2.042,0-3.699-1.656-3.699-3.697c0-2.042,1.657-3.698,3.699-3.698   c2.041,0,3.696,1.656,3.696,3.698C54.823,66.568,53.168,68.225,51.127,68.225z"/>
</g>
</svg>