<svg xmlns="http://www.w3.org/2000/svg" xmlns:xlink="http://www.w3.org/1999/xlink" version="1.1" id="Layer_1" x="0px" y="0px" width="100px" height="100px" viewBox="0 0 100 100" enable-background="new 0 0 100 100" xml:space="preserve">
<path d="M79,75.093V61.631c5.022-1.622,8.667-6.337,8.667-11.891c0-5.274-3.289-9.786-7.92-11.617L60.392,18.768  c1.077-1.846,1.705-3.985,1.705-6.272C62.097,5.605,56.491,0,49.601,0c-6.891,0-12.498,5.605-12.498,12.496  c0,2.725,0.886,5.24,2.372,7.296L20.917,38.35c-4.346,1.959-7.384,6.322-7.384,11.391c0,6.89,5.606,12.496,12.498,12.496  c6.89,0,12.497-5.606,12.497-12.496c0-5.283-3.3-9.799-7.942-11.625l14.123-14.122c1.504,0.642,3.158,1,4.894,1  c2.185,0,4.237-0.567,6.026-1.556l14.762,14.762c-4.523,1.881-7.715,6.344-7.715,11.542c0,5.793,3.969,10.664,9.326,12.072V74.91  c-5.357,1.409-9.326,6.28-9.326,12.074c0,6.891,5.606,12.496,12.497,12.496s12.496-5.605,12.496-12.496  C87.667,81.429,84.022,76.714,79,75.093z M26.03,55.566c-3.213,0-5.827-2.613-5.827-5.826c0-3.212,2.614-5.826,5.827-5.826  c3.212,0,5.826,2.613,5.826,5.826C31.856,52.953,29.243,55.566,26.03,55.566z M43.774,12.496c0-3.212,2.614-5.826,5.827-5.826  c3.213,0,5.826,2.613,5.826,5.826s-2.613,5.826-5.826,5.826C46.388,18.322,43.774,15.708,43.774,12.496z M69.344,49.74  c0-3.212,2.614-5.826,5.827-5.826s5.826,2.613,5.826,5.826c0,3.213-2.613,5.826-5.826,5.826S69.344,52.953,69.344,49.74z   M75.171,92.81c-3.213,0-5.827-2.613-5.827-5.825c0-3.213,2.614-5.826,5.827-5.826s5.826,2.613,5.826,5.826  C80.997,90.196,78.384,92.81,75.171,92.81z"/>
</svg>